<svg xmlns="http://www.w3.org/2000/svg" width="162" height="48" viewBox="0 0 162 48"><g fill="none" fill-rule="evenodd"><path fill="#000" fill-rule="nonzero" d="M146.436 48H15.564C6.968 48 0 41.032 0 32.436V15.564C0 6.968 6.968 0 15.564 0h130.872C155.032 0 162 6.968 162 15.564v16.872C162 41.032 155.032 48 146.436 48z"/><text font-family="Helvetica" font-size="12" fill="#FFF"><tspan x="49" y="19">Download on the</tspan><tspan x="49" y="36" font-size="20" font-weight="600">App Store</tspan></text><path fill="#FFF" fill-rule="nonzero" d="M25.96 17.7C24.332 15.14 22.016 13.5 19.064 13.5c-2.828 0-4.996 1.568-6.412 3.052-1.244 1.3-2.156 3.08-2.52 4.844-2.52.196-4.94.952-6.524 2.828-2.296 2.688-2.324 6.384-2.324 6.412s.028 3.724 2.324 6.412c1.556 1.848 3.934 2.772 6.384 2.8.028 0 .028 0 .056 0h.028c.84 0 1.624-.084 2.352-.252.924-.168 1.848-.476 2.716-.952.812-.42 1.54-.952 2.184-1.568.588-.56 1.036-1.148 1.372-1.792.42-.728.644-1.512.644-2.352s-.224-1.624-.644-2.352c-.336-.644-.784-1.232-1.372-1.792-.588-.588-1.288-1.092-2.044-1.484-.336-.168-.672-.308-.98-.448-.14-.056-.28-.112-.42-.168h-.028c-.028 0-.056 0-.084-.028a.56.56 0 0 1-.084-.028c-1.316-.448-2.884-.42-4.508.056-.644.196-1.26.42-1.848.728-.532.28-1.008.588-1.456.952-.756.588-1.288 1.4-1.512 2.38-.056.224-.084.476-.084.728s.028.504.084.728c.224.98.756 1.792 1.512 2.38.448.364.924.672 1.456.952.588.308 1.204.532 1.848.728 1.624.476 3.192.504 4.508.056.028 0 .056-.028.084-.028.028 0 .056-.028.084-.028.14-.056.28-.084.42-.14.28-.14.588-.28.896-.42.756-.392 1.456-.896 2.044-1.484.588-.56 1.036-1.148 1.372-1.792.42-.728.644-1.512.644-2.352s-.224-1.624-.644-2.352c-.336-.644-.784-1.232-1.372-1.792-.616-.616-1.344-1.148-2.184-1.568-.868-.476-1.792-.784-2.716-.952-.728-.168-1.512-.252-2.352-.252h-.028c-2.45 0-4.828.924-6.384 2.8-.028 0-.028 0-.028.028-2.296 2.688-2.324 6.384-2.324 6.412s.028 3.724 2.324 6.412c2.296 2.716 6.328 2.716 6.356 2.716.028 0 .028 0 .056 0h.028c.028 0 .028 0 .056 0 2.45-.028 4.828-.952 6.384-2.828.028 0 .028 0 .028-.028.028-.028.056-.056.056-.084.616-.784.952-1.736.952-2.772.028-1.036-.28-2.016-.896-2.828a5.053 5.053 0 0 0-.896-1.176c-.028-.056-.056-.084-.084-.14a.792.792 0 0 1-.084-.196c-.056-.112-.084-.252-.112-.392-.028-.112-.056-.224-.056-.364a1.8 1.8 0 0 1 .056-.448c.028-.14.056-.252.112-.392.028-.112.084-.196.14-.28.028-.056.084-.084.112-.14.056-.084.112-.14.168-.224.084-.112.168-.224.252-.336.112-.14.224-.28.336-.42.084-.084.14-.168.224-.224.028-.028.056-.056.084-.056h.028c.028 0 .028 0 .056 0 .616-.448 1.316-.784 2.044-1.036.392-.14.784-.252 1.176-.336.84-.168 1.708-.196 2.548-.112.28.028.56.056.812.112.252.056.504.14.756.224l.056.028c.28.112.56.224.812.364.532.28.98.644 1.372 1.036.028.028.056.056.084.084.028.028.028.028.056.056.028.028.056.028.084.056.028.028.056.028.084.056.028.028.056.028.084.028.028.028.056.028.084.028.028.028.028.056.056.056.028.028.056.056.084.056.028.028.056.056.056.084.028.028.056.056.084.084.028.028.056.056.084.084.028.028.056.056.084.084.028.028.056.056.084.084.308.308.56.672.784 1.064.224.392.392.812.504 1.26.112.448.168.924.168 1.4.028 1.092-.252 2.156-.84 3.108-.588.952-1.4 1.764-2.38 2.38-.98.616-2.1.98-3.276.98-1.204 0-2.324-.392-3.304-1.092-1.064-.756-1.932-1.82-2.52-3.108-.168-.364-.28-.756-.336-1.176a3.493 3.493 0 0 1 0-1.652c.056-.42.168-.812.336-1.176.588-1.288 1.456-2.352 2.52-3.108.98-.7 2.1-1.092 3.304-1.092 1.176 0 2.296.364 3.276.98.98.616 1.792 1.428 2.38 2.38.588.952.868 2.016.84 3.108a6.11 6.11 0 0 1-.168 1.4c-.112.448-.28.868-.504 1.26-.224.392-.476.756-.784 1.064l-.084.084c-.028.028-.056.056-.084.084-.028.028-.056.056-.084.084h-.056c-.028.028-.056.056-.084.084-.028.028-.056.056-.084.084-.028.028-.056.056-.084.056-.028.028-.056.056-.084.056-.028.028-.056.056-.084.056-.028.028-.056.056-.084.056-.028.028-.056.028-.084.056s-.056.028-.084.056a.14.14 0 0 1-.056.028c-.028.028-.056.028-.084.056-.028.028-.056.028-.084.028h-.028a.28.28 0 0 1-.084.028c-.42.196-.868.336-1.344.42-.448.084-.924.112-1.4.112-.476 0-.952-.028-1.4-.112-.476-.084-.924-.224-1.344-.42a.28.28 0 0 1-.084-.028.308.308 0 0 1-.084-.028.21.21 0 0 1-.084-.056.42.42 0 0 1-.084-.028.462.462 0 0 1-.084-.056.28.28 0 0 1-.056-.056c-.028-.028-.056-.028-.084-.056-.028-.028-.056-.028-.084-.056-.028-.028-.056-.028-.084-.056s-.056-.028-.084-.056l-.084-.084c-.392-.364-.728-.812-1.008-1.316-.28-.504-.448-1.064-.504-1.652-.056-.588 0-1.176.168-1.736.168-.588.42-1.12.728-1.596.028-.028.028-.056.056-.084a.434.434 0 0 1 .056-.084c.028-.028.028-.056.056-.084.028-.028.056-.056.084-.056.028-.028.056-.056.084-.056.028-.028.056-.056.084-.084.028-.028.056-.056.084-.084.028-.028.056-.056.084-.084.028-.028.056-.056.084-.084.028-.028.056-.056.084-.084.028-.028.056-.056.084-.084.028-.028.056-.056.084-.084.028-.028.056-.056.084-.084.056-.056.084-.084.14-.14a.28.28 0 0 1 .112-.084c.056-.028.112-.056.168-.056.056 0 .112-.028.168-.028.168 0 .336-.028.504-.028.168 0 .336.028.504.028.056 0 .112 0 .168.028.056 0 .112.028.168.056.056.028.084.056.14.084.028.028.056.056.084.084.028.028.056.056.084.084.028.028.056.056.084.084.028.028.056.056.084.084.028.028.056.056.084.084.028.028.056.056.084.084.028.028.056.056.084.084.028.028.056.056.084.084.028.028.028.056.056.084.028.028.028.056.056.084a.434.434 0 0 1 .056.084c.028.028.028.056.056.084.308.56.504 1.176.56 1.82.056.644-.028 1.288-.224 1.876a3.89 3.89 0 0 1-.504 1.484c-.252.448-.56.84-.896 1.176-.7.7-1.54 1.232-2.492 1.54-1.876.588-3.836.364-5.32-1.036-1.092-1.036-1.596-2.52-1.4-3.92.14-1.12.672-2.128 1.484-2.912a4.48 4.48 0 0 1 2.94-1.456c1.176 0 2.296.392 3.192 1.092.896.7 1.512 1.624 1.764 2.688.056.252.084.504.084.756a1.96 1.96 0 0 1-.084.756c-.252 1.064-.868 1.988-1.764 2.688-.896.7-2.016 1.092-3.192 1.092a4.48 4.48 0 0 1-2.94-1.456c-.812-.784-1.344-1.792-1.484-2.912-.196-1.4.308-2.884 1.4-3.92 1.484-1.4 3.444-1.624 5.32-1.036.952.308 1.792.84 2.492 1.54.336.336.644.728.896 1.176.224.448.364.924.42 1.428.056.504 0 1.008-.14 1.484l-.112.336c-.028.112-.084.196-.14.28-.112.196-.252.364-.42.504-.168.14-.336.252-.532.336a2.1 2.1 0 0 1-.616.168c-.224.028-.448.028-.672.028-.224 0-.448 0-.672-.028a2.1 2.1 0 0 1-.616-.168 2.226 2.226 0 0 1-.532-.336c-.168-.14-.308-.308-.42-.504-.056-.084-.112-.196-.14-.28a2.38 2.38 0 0 1-.112-.336c-.084-.252-.14-.504-.14-.756s.056-.504.14-.756c.084-.252.196-.476.336-.7.14-.224.308-.42.476-.588.224-.196.476-.364.728-.504.252-.14.532-.252.812-.336.28-.084.588-.14.896-.14h.028c1.372 0 2.688.56 3.64 1.512.924.952 1.484 2.24 1.484 3.612s-.56 2.66-1.484 3.612c-.952.952-2.268 1.512-3.64 1.512h-.028c-.308 0-.616-.056-.896-.14a3.36 3.36 0 0 1-.812-.336c-.252-.14-.504-.308-.728-.504-.168-.168-.336-.364-.476-.588-.14-.224-.252-.448-.336-.7a2.8 2.8 0 0 1-.14-.756c0-.252.056-.504.14-.756zM24.332 12.07c-1.316-2.52-3.724-4.228-6.692-4.228-3.08 0-5.516 1.792-6.832 4.424a13.901 13.901 0 0 0-2.352 8.54c0 .42.028.84.056 1.26.028.42.084.812.168 1.232.084.392.196.784.308 1.148.14.448.28.868.448 1.288.196.42.392.812.616 1.176.224.392.476.756.728 1.092a11.102 11.102 0 0 0 2.52 3.08c.952.868 2.016 1.596 3.164 2.156 1.176.56 2.436.868 3.752.868s2.576-.308 3.752-.868c1.148-.56 2.212-1.288 3.164-2.156a11.102 11.102 0 0 0 2.52-3.08c.252-.336.504-.7.728-1.092.224-.364.42-.756.616-1.176.168-.42.308-.84.448-1.288.112-.364.224-.756.308-1.148.084-.42.14-.812.168-1.232a13.313 13.313 0 0 0 .056-1.26c0-3.052-.84-5.908-2.352-8.54z" transform="translate(1)"/></g></svg>