<svg xmlns="http://www.w3.org/2000/svg" width="174" height="49" viewBox="0 0 174 49"><g fill="none" fill-rule="evenodd"><path fill="#000" fill-rule="nonzero" d="M157.803 48.06H15.917C7.125 48.06 0 40.935 0 32.143V15.917C0 7.125 7.125 0 15.917 0h141.886C165.875 0 173 7.125 173 15.917v16.226c0 8.792-7.125 15.917-15.197 15.917z"/><text font-family="Helvetica" font-size="12" fill="#FFF"><tspan x="50" y="19">GET IT ON</tspan><tspan x="50" y="38" font-size="20" font-weight="600">Google Play</tspan></text><path fill="#FFF" d="M23.08 11.235l-7.462 7.461 7.462 7.462 1.343-1.344-4.746-4.746h13.12v-2.746H19.677l4.746-4.746-1.343-1.344zm-2.028 17.51a1.373 1.373 0 1 1 0-2.746 1.373 1.373 0 0 1 0 2.746zm-5.492-5.492a1.373 1.373 0 1 1 0-2.745 1.373 1.373 0 0 1 0 2.745zm0-10.984a1.373 1.373 0 1 1 0-2.746 1.373 1.373 0 0 1 0 2.746zm5.492-5.492a1.373 1.373 0 1 1 0-2.746 1.373 1.373 0 0 1 0 2.746z"/><path fill="#FFF" d="M28.571 21.284l-2.08 2.08-5.267-5.267-5.238 5.238-2.11-2.11L18.252 11.85l-.028-.028 10.347 9.462zM11.848 18.252l9.462 10.347h.028L11.848 38.97V18.252zm16.723 5.38l-5.295 5.295L21.166 31l2.11 2.11 5.295-5.295 5.267 5.267 2.11-2.11-5.267-5.267.028.028zM31.68 11.848l-9.462 10.347V1.501l9.462 10.347z"/></g></svg>